# xmcd CD database file
#
# Track frame offsets:
#	150
#	16338
#	38416
#	66622
#	83970
#	101305
#	130066
#	142841
#	165160
#	187048
#	206390
#
# Disc length: 2942 seconds
#
# Revision: 0
# Processed by: cddbd v1.4PL0 Copyright (c) Steve Scherf et al.
# Submitted via: CDex 1.50
#
DISCID=850b7c0b
DTITLE=Xavier Pillac - S'en Sortir
DYEAR=2003
DGENRE=Blues
TTITLE0=S'en Sortir
TTITLE1=Ferme Pas Les Yeux
TTITLE2=T-Bone Shuffle
TTITLE3=Slipping My Chain
TTITLE4=Il Faut Qu'je Gagne
TTITLE5=Si Seul
TTITLE6=Choubaka
TTITLE7=Usé
TTITLE8=Ne T'en Va Pas
TTITLE9=Cheated
TTITLE10=Rambling On My Mind
EXTD=YEAR: 2003
EXTT0=
EXTT1=
EXTT2=
EXTT3=
EXTT4=
EXTT5=
EXTT6=
EXTT7=
EXTT8=
EXTT9=
EXTT10=
PLAYORDER=
